<svg xmlns="http://www.w3.org/2000/svg" viewBox="0 0 800 300" preserveAspectRatio="xMidYMid slice">
  <!-- Connecting lines -->
  <g stroke="#ffffff" stroke-opacity="0.18" stroke-width="0.9" fill="none">
    <line x1="45"  y1="55"  x2="130" y2="35"/>
    <line x1="130" y1="35"  x2="210" y2="80"/>
    <line x1="210" y1="80"  x2="295" y2="45"/>
    <line x1="295" y1="45"  x2="370" y2="90"/>
    <line x1="370" y1="90"  x2="455" y2="35"/>
    <line x1="455" y1="35"  x2="530" y2="75"/>
    <line x1="530" y1="75"  x2="625" y2="50"/>
    <line x1="625" y1="50"  x2="720" y2="85"/>
    <line x1="720" y1="85"  x2="780" y2="55"/>

    <line x1="45"  y1="55"  x2="75"  y2="145"/>
    <line x1="130" y1="35"  x2="165" y2="125"/>
    <line x1="210" y1="80"  x2="255" y2="160"/>
    <line x1="295" y1="45"  x2="340" y2="135"/>
    <line x1="370" y1="90"  x2="435" y2="170"/>
    <line x1="455" y1="35"  x2="515" y2="145"/>
    <line x1="530" y1="75"  x2="600" y2="165"/>
    <line x1="625" y1="50"  x2="705" y2="145"/>
    <line x1="720" y1="85"  x2="755" y2="165"/>

    <line x1="75"  y1="145" x2="165" y2="125"/>
    <line x1="165" y1="125" x2="255" y2="160"/>
    <line x1="255" y1="160" x2="340" y2="135"/>
    <line x1="340" y1="135" x2="435" y2="170"/>
    <line x1="435" y1="170" x2="515" y2="145"/>
    <line x1="515" y1="145" x2="600" y2="165"/>
    <line x1="600" y1="165" x2="705" y2="145"/>
    <line x1="705" y1="145" x2="755" y2="165"/>

    <line x1="75"  y1="145" x2="35"  y2="235"/>
    <line x1="165" y1="125" x2="120" y2="250"/>
    <line x1="255" y1="160" x2="205" y2="240"/>
    <line x1="340" y1="135" x2="310" y2="265"/>
    <line x1="435" y1="170" x2="400" y2="250"/>
    <line x1="515" y1="145" x2="480" y2="265"/>
    <line x1="600" y1="165" x2="570" y2="250"/>
    <line x1="705" y1="145" x2="670" y2="260"/>
    <line x1="755" y1="165" x2="775" y2="240"/>

    <line x1="35"  y1="235" x2="120" y2="250"/>
    <line x1="120" y1="250" x2="205" y2="240"/>
    <line x1="205" y1="240" x2="310" y2="265"/>
    <line x1="310" y1="265" x2="400" y2="250"/>
    <line x1="400" y1="250" x2="480" y2="265"/>
    <line x1="480" y1="265" x2="570" y2="250"/>
    <line x1="570" y1="250" x2="670" y2="260"/>
    <line x1="670" y1="260" x2="775" y2="240"/>

    <!-- A few diagonal cross-connections for organic feel -->
    <line x1="130" y1="35"  x2="255" y2="160"/>
    <line x1="370" y1="90"  x2="515" y2="145"/>
    <line x1="625" y1="50"  x2="755" y2="165"/>
    <line x1="165" y1="125" x2="310" y2="265"/>
    <line x1="435" y1="170" x2="570" y2="250"/>
  </g>

  <!-- Star dots -->
  <g fill="#ffffff" fill-opacity="0.45">
    <!-- Top row -->
    <circle cx="45"  cy="55"  r="2.2"/>
    <circle cx="130" cy="35"  r="1.8"/>
    <circle cx="210" cy="80"  r="2.8"/>
    <circle cx="295" cy="45"  r="1.8"/>
    <circle cx="370" cy="90"  r="2.2"/>
    <circle cx="455" cy="35"  r="2.5"/>
    <circle cx="530" cy="75"  r="1.8"/>
    <circle cx="625" cy="50"  r="2.2"/>
    <circle cx="720" cy="85"  r="1.8"/>
    <circle cx="780" cy="55"  r="2.0"/>
    <!-- Middle row -->
    <circle cx="75"  cy="145" r="2.0"/>
    <circle cx="165" cy="125" r="2.5"/>
    <circle cx="255" cy="160" r="1.8"/>
    <circle cx="340" cy="135" r="2.2"/>
    <circle cx="435" cy="170" r="1.8"/>
    <circle cx="515" cy="145" r="2.8"/>
    <circle cx="600" cy="165" r="2.0"/>
    <circle cx="705" cy="145" r="1.8"/>
    <circle cx="755" cy="165" r="2.2"/>
    <!-- Bottom row -->
    <circle cx="35"  cy="235" r="1.8"/>
    <circle cx="120" cy="250" r="2.2"/>
    <circle cx="205" cy="240" r="1.8"/>
    <circle cx="310" cy="265" r="2.5"/>
    <circle cx="400" cy="250" r="2.0"/>
    <circle cx="480" cy="265" r="1.8"/>
    <circle cx="570" cy="250" r="2.2"/>
    <circle cx="670" cy="260" r="1.8"/>
    <circle cx="775" cy="240" r="2.0"/>
  </g>
</svg>
